<?xml version="1.0" standalone="no"?>
<!DOCTYPE svg PUBLIC "-//W3C//DTD SVG 20010904//EN"
 "http://www.w3.org/TR/2001/REC-SVG-20010904/DTD/svg10.dtd">
<svg version="1.0" xmlns="http://www.w3.org/2000/svg"
 width="950.000000pt" height="950.000000pt" viewBox="0 0 950.000000 950.000000"
 preserveAspectRatio="xMidYMid meet">

<g transform="translate(0.000000,950.000000) scale(0.100000,-0.100000)"
fill="#000000" stroke="none">
<path d="M4489 9296 c-2 -3 -83 -12 -179 -20 -597 -55 -1314 -295 -1820 -611
-85 -53 -173 -106 -195 -117 -218 -112 -378 -243 -741 -610 -171 -172 -339
-350 -375 -396 -97 -125 -187 -252 -210 -297 -51 -97 -114 -206 -159 -275 -83
-127 -135 -228 -214 -413 -88 -206 -89 -207 -166 -439 -87 -258 -142 -492
-182 -768 -21 -144 -23 -188 -23 -630 0 -345 4 -490 13 -530 7 -30 19 -104 27
-165 26 -192 73 -402 125 -550 11 -33 34 -103 52 -155 35 -109 106 -292 141
-365 13 -27 39 -84 58 -125 18 -41 49 -100 69 -130 19 -30 40 -64 46 -75 55
-102 122 -217 144 -250 15 -22 41 -67 58 -100 54 -108 214 -329 297 -411 49
-49 122 -128 195 -213 72 -84 460 -454 536 -512 32 -25 82 -59 109 -74 28 -16
120 -75 205 -131 85 -56 175 -112 200 -124 25 -12 70 -39 100 -59 110 -75 477
-239 718 -322 245 -84 450 -138 630 -164 57 -8 108 -17 113 -21 6 -3 85 -10
177 -15 92 -5 205 -15 252 -22 132 -20 424 -22 501 -3 35 8 156 20 270 25 113
6 218 15 235 20 16 5 63 15 104 21 227 34 681 172 930 283 129 58 239 111 290
142 30 17 98 56 150 85 99 55 134 77 315 195 61 39 137 89 170 110 33 21 107
82 165 135 58 53 148 132 200 177 100 85 161 147 300 303 46 52 119 131 161
175 66 69 153 188 172 235 3 8 33 53 66 100 74 104 133 198 223 355 39 66 73
125 78 130 24 30 151 304 205 445 29 74 134 389 156 465 30 109 66 274 74 340
3 33 14 119 23 190 14 106 17 220 17 611 0 353 -3 487 -12 505 -6 13 -17 90
-22 170 -11 142 -16 173 -68 389 -40 172 -152 507 -228 685 -58 138 -161 342
-211 422 -22 33 -50 79 -64 102 -14 23 -71 113 -128 199 -57 86 -119 182 -138
213 -19 31 -54 83 -79 115 -65 84 -493 512 -666 668 -205 184 -235 208 -325
262 -43 26 -117 71 -164 99 -357 217 -545 314 -780 405 -113 43 -180 66 -430
145 -238 75 -518 129 -760 146 -91 6 -169 15 -174 20 -10 9 -549 13 -557 5z
m491 -796 c30 -5 122 -16 203 -24 227 -24 585 -112 822 -203 66 -25 131 -52
145 -58 14 -7 50 -23 80 -35 149 -60 415 -203 530 -286 155 -112 225 -160 281
-194 92 -56 173 -124 347 -295 94 -93 185 -191 214 -235 61 -88 171 -235 228
-303 38 -46 161 -246 230 -372 31 -57 215 -467 237 -530 23 -64 86 -287 106
-380 39 -172 49 -254 60 -465 29 -573 -2 -1006 -96 -1330 -9 -30 -26 -89 -37
-130 -20 -71 -82 -233 -160 -415 -40 -94 -142 -292 -201 -390 -69 -115 -97
-154 -253 -353 -37 -48 -93 -125 -124 -172 -79 -121 -323 -363 -467 -463 -121
-84 -248 -179 -310 -231 -174 -144 -780 -433 -1041 -495 -21 -5 -89 -22 -149
-39 -130 -36 -366 -66 -653 -83 -219 -13 -514 -3 -762 27 -69 8 -147 17 -174
20 -26 4 -96 19 -155 35 -58 16 -122 34 -141 39 -110 29 -382 137 -565 224
-207 98 -507 283 -606 372 -30 27 -115 95 -189 151 -197 148 -484 451 -592
625 -27 44 -78 117 -112 162 -74 97 -151 226 -234 393 -200 398 -298 702 -373
1153 -5 30 -10 96 -10 147 1 74 -3 95 -17 109 -15 16 -17 41 -16 234 1 119 6
255 12 301 6 46 16 131 23 189 18 173 66 402 130 625 87 304 384 898 531 1065
22 25 63 82 92 127 47 76 190 253 296 367 57 61 294 266 358 308 26 18 79 57
117 88 105 85 275 188 494 299 343 174 485 228 806 311 213 54 317 74 485 91
63 7 138 15 165 19 72 10 380 10 445 0z"/>
<path d="M4565 8071 c-177 -7 -236 -13 -375 -40 -212 -42 -332 -74 -510 -136
-41 -14 -90 -31 -109 -36 -19 -6 -82 -35 -140 -64 -58 -29 -137 -68 -176 -85
-223 -102 -257 -122 -435 -254 -134 -100 -624 -579 -715 -700 -65 -85 -171
-248 -212 -327 -23 -42 -46 -85 -52 -95 -5 -10 -21 -50 -35 -89 -13 -38 -42
-108 -64 -155 -116 -247 -197 -533 -249 -870 -29 -194 -42 -579 -24 -745 22
-208 75 -513 100 -578 5 -12 26 -76 46 -142 21 -66 65 -181 97 -255 33 -74 73
-171 90 -215 51 -139 173 -353 287 -500 157 -204 575 -627 736 -746 90 -65
164 -107 543 -305 154 -81 310 -143 472 -188 206 -57 242 -65 490 -107 73 -12
736 -12 825 0 450 64 766 174 1300 456 190 100 267 157 481 356 355 332 556
571 662 789 30 63 75 150 100 193 39 69 74 146 159 352 86 211 165 543 194
815 5 52 8 217 7 365 l-3 270 -1590 3 c-1686 3 -1660 4 -1756 -44 -67 -33
-139 -117 -173 -201 -24 -59 -29 -87 -30 -164 -1 -85 2 -100 28 -152 33 -67
104 -134 186 -174 l55 -28 852 -5 c601 -4 855 -8 863 -16 12 -12 11 -12 -45
-159 -49 -125 -97 -218 -162 -315 -110 -164 -153 -219 -209 -267 -29 -26 -75
-73 -100 -104 -25 -32 -65 -70 -88 -86 -22 -15 -59 -41 -80 -57 -150 -115
-456 -259 -598 -281 -24 -3 -63 -13 -88 -20 -43 -14 -279 -36 -378 -36 -79 0
-273 20 -352 37 -330 71 -730 295 -921 516 -243 280 -360 503 -447 848 l-36
145 0 230 c0 197 3 244 22 325 69 311 190 555 427 860 77 99 94 113 227 205
257 178 544 307 788 356 97 19 147 22 325 23 l210 0 160 -41 c258 -67 437
-149 673 -308 107 -72 145 -104 218 -188 159 -180 166 -187 204 -193 74 -12
133 36 162 129 9 29 8 43 -2 62 -11 20 -10 28 3 49 16 25 18 25 54 10 21 -9
42 -20 48 -25 22 -21 88 -9 131 24 81 61 94 141 32 197 -31 28 -89 47 -109 35
-20 -13 -58 6 -78 39 -17 27 -21 50 -21 119 0 84 0 85 -27 92 -52 12 -111 55
-142 102 -37 55 -38 68 -9 128 51 104 200 114 265 16 27 -40 30 -101 7 -156
-15 -36 -14 -37 11 -61 53 -49 153 -19 171 51 8 34 -3 90 -21 105 -8 7 -15 18
-15 26 0 26 36 34 103 25 84 -12 111 -5 142 34 20 27 25 45 25 93 0 59 0 60
31 64 20 3 33 0 36 -9 13 -35 165 6 178 48 13 41 -78 148 -250 294 -38 33 -99
87 -135 121 -66 62 -107 92 -263 196 -78 52 -235 138 -251 138 -4 0 -62 27
-129 59 -67 32 -133 62 -147 66 -14 4 -51 21 -83 37 -59 29 -178 75 -232 89
-16 4 -84 21 -150 39 -315 82 -572 106 -1010 91z m-2 -216 c68 -28 119 -122
97 -179 -5 -14 -14 -26 -20 -26 -5 0 -10 -7 -10 -15 0 -8 -7 -15 -15 -15 -8 0
-15 -4 -15 -8 0 -16 -51 -32 -104 -32 -49 0 -57 3 -94 40 -48 48 -58 95 -32
155 36 83 111 115 193 80z m437 0 c0 -8 12 -22 26 -31 14 -10 35 -37 46 -60
17 -37 18 -48 8 -78 -6 -20 -30 -52 -53 -71 -36 -31 -47 -35 -99 -35 -57 0
-60 1 -103 48 -37 39 -45 54 -45 87 0 91 69 155 168 155 39 0 52 -4 52 -15z
m363 -34 c41 -16 99 -74 119 -119 l20 -43 -34 -49 c-24 -36 -46 -55 -81 -70
-46 -20 -51 -21 -89 -5 -22 8 -50 27 -62 41 -11 14 -29 33 -38 42 -22 20 -23
67 -4 113 16 38 36 59 81 82 35 19 55 20 88 8z m-1187 -38 c36 -23 84 -97 84
-128 0 -54 -48 -113 -109 -134 -85 -28 -139 -5 -177 75 -34 72 -28 111 28 165
37 36 45 39 95 39 33 0 63 -6 79 -17z m1679 -115 c89 -90 64 -193 -62 -248
-35 -16 -49 -17 -75 -8 -41 13 -108 76 -108 101 0 10 -5 27 -11 38 -7 14 -7
30 3 57 24 73 68 101 157 102 50 0 56 -3 96 -42z m-2079 16 c46 -22 84 -87 84
-145 0 -46 -13 -72 -63 -124 -39 -41 -102 -40 -161 3 -36 26 -49 43 -76 102
-12 25 10 93 38 124 52 55 116 69 178 40z m2390 -143 c84 -38 121 -125 86
-202 -23 -52 -42 -70 -101 -93 -42 -16 -45 -16 -88 5 -26 13 -55 37 -70 60
-22 34 -25 47 -21 102 4 69 24 101 83 131 39 20 61 20 111 -3z m-2761 -27 c33
-13 57 -67 62 -140 5 -69 4 -77 -18 -100 -35 -38 -72 -54 -122 -54 -37 0 -50
6 -80 35 -56 55 -72 96 -57 149 11 42 65 106 100 119 15 6 91 0 115 -9z m1521
-158 c28 -32 31 -43 29 -91 -1 -48 -6 -60 -35 -90 -47 -48 -108 -71 -153 -56
-80 27 -133 133 -103 204 27 65 88 90 186 76 34 -5 52 -15 76 -43z m-386 8
c44 -30 56 -64 47 -140 -8 -73 -73 -124 -156 -124 -42 0 -50 5 -100 65 -49 59
-36 149 29 195 65 46 114 47 180 4z m673 -11 c33 -16 87 -97 87 -129 0 -64
-52 -126 -120 -144 -46 -12 -78 -2 -115 37 -42 45 -55 77 -52 131 3 43 8 54
37 79 61 52 100 58 163 26z m1314 -23 c18 -11 46 -38 63 -61 37 -51 39 -97 8
-159 -38 -74 -113 -98 -198 -64 -46 19 -64 47 -74 116 -11 74 22 131 99 171
40 22 64 21 102 -3z m-2349 -26 c36 -25 82 -94 82 -122 0 -45 -37 -107 -78
-129 -39 -22 -56 -26 -109 -24 -46 1 -103 53 -103 93 0 23 -4 29 -15 24 -42
-16 5 106 56 147 27 22 45 27 89 27 35 0 64 -6 78 -16z m1387 -33 c35 -20 78
-79 71 -98 -3 -7 1 -13 9 -13 21 0 19 -8 -15 -66 -23 -41 -41 -58 -82 -78 -60
-30 -74 -31 -116 -11 -92 47 -115 148 -55 243 32 52 120 63 188 23z m-2492
-11 c34 -27 67 -98 67 -144 0 -29 -8 -45 -39 -77 -66 -69 -146 -72 -213 -10
-30 28 -33 36 -36 104 -4 71 -3 75 28 110 31 36 34 37 100 37 52 0 73 -4 93
-20z m746 -102 c26 -20 45 -44 48 -61 3 -15 10 -30 14 -33 27 -16 -13 -110
-60 -143 -20 -15 -44 -21 -79 -21 -66 0 -92 11 -117 49 -11 17 -26 31 -32 31
-20 0 -16 86 7 129 11 23 32 44 52 54 77 35 115 34 167 -5z m2099 -43 c32 -32
43 -50 39 -65 -3 -11 -2 -20 3 -20 4 0 10 -10 14 -22 6 -27 -31 -89 -68 -113
-37 -24 -117 -30 -153 -11 -42 21 -93 85 -93 116 1 39 34 103 69 133 27 22 42
27 88 27 53 0 58 -2 101 -45z m960 -47 c22 -19 62 -105 62 -134 0 -25 -54
-105 -68 -102 -4 1 -24 -3 -44 -9 -52 -15 -76 -7 -125 44 -33 33 -43 51 -43
77 0 42 50 112 93 132 35 15 101 11 125 -8z m-4199 -69 c40 -8 54 -17 76 -49
38 -55 43 -106 13 -150 -30 -44 -61 -60 -120 -60 -56 0 -96 29 -127 94 -23 47
-21 66 16 106 13 14 23 28 23 33 0 6 50 33 67 37 1 0 24 -5 52 -11z m793 -31
c16 -17 36 -45 45 -61 21 -42 4 -95 -44 -137 -33 -29 -41 -32 -90 -28 -47 4
-57 9 -88 44 -45 52 -53 90 -26 142 29 56 55 72 119 72 48 0 57 -4 84 -32z
m2709 -4 c14 -7 41 -30 59 -50 30 -35 32 -41 26 -88 -5 -41 -13 -57 -39 -79
-38 -33 -96 -52 -131 -43 -33 8 -93 61 -112 99 -28 54 6 130 76 168 37 19 73
18 121 -7z m-3067 -178 c43 -18 106 -95 106 -130 0 -42 -37 -104 -78 -130 -35
-23 -49 -24 -128 -17 -26 2 -72 58 -82 99 -16 68 11 132 71 171 38 24 66 26
111 7z m-253 -313 c39 -37 59 -83 59 -137 0 -21 -12 -41 -44 -72 -41 -41 -47
-44 -97 -44 -61 1 -89 18 -133 84 -31 46 -32 67 -6 124 15 33 29 47 62 62 69
31 113 27 159 -17z m3513 -187 c80 -33 110 -141 62 -221 l-24 -40 -69 3 c-106
5 -153 45 -153 129 0 29 3 53 8 53 4 0 14 13 23 29 11 18 32 34 60 44 56 20
54 20 93 3z m-3790 -127 c32 -15 76 -81 76 -114 0 -64 -68 -135 -129 -135 -42
0 -92 29 -124 71 -21 30 -28 100 -9 107 7 2 12 9 12 16 0 44 117 80 174 55z
m-144 -365 c46 -46 61 -91 45 -137 -23 -68 -77 -107 -148 -107 -33 0 -103 41
-90 53 3 4 -1 7 -9 7 -24 0 -49 81 -38 121 20 68 72 102 153 96 48 -3 63 -8
87 -33z m-152 -361 c49 -37 65 -68 63 -125 -2 -78 -51 -118 -143 -118 -58 0
-100 28 -126 83 -22 46 -20 74 7 126 31 57 143 76 199 34z m-76 -362 c15 -6
34 -23 42 -40 9 -16 21 -31 28 -33 9 -3 12 -21 11 -52 -1 -41 -7 -53 -39 -84
-36 -35 -41 -37 -107 -37 -66 0 -70 1 -103 37 -29 32 -34 45 -34 85 0 111 91
166 202 124z m-4 -411 c68 -41 93 -116 62 -182 -25 -54 -69 -78 -140 -78 -54
0 -98 29 -125 81 -27 51 -19 91 25 142 22 25 51 48 63 50 50 10 84 6 115 -13z
m50 -396 c30 -21 72 -88 72 -114 0 -46 -66 -124 -110 -130 -57 -8 -92 2 -130
36 -38 35 -40 39 -40 96 0 55 3 63 34 94 31 31 39 34 93 34 37 0 67 -6 81 -16z
m5062 -32 c13 -10 23 -33 27 -59 5 -36 2 -45 -22 -67 -33 -31 -50 -32 -92 -6
-40 24 -50 58 -29 98 27 53 75 67 116 34z m-4974 -351 c62 -28 84 -63 83 -130
-2 -48 -6 -59 -31 -83 -35 -32 -88 -49 -129 -41 -16 3 -45 20 -65 37 -34 30
-37 35 -38 93 -1 52 3 65 23 87 14 14 30 26 37 26 6 0 17 7 24 15 16 20 46 19
96 -4z m4881 -44 c30 -28 35 -38 29 -61 -9 -35 -49 -76 -75 -76 -35 0 -81 48
-81 84 0 39 40 81 83 85 4 1 24 -14 44 -32z m-4692 -327 c36 -25 44 -36 49
-74 10 -63 0 -90 -47 -127 -69 -56 -139 -40 -195 42 -18 26 -22 41 -17 64 4
17 8 38 9 48 5 37 68 75 129 76 16 1 47 -12 72 -29z m4506 -22 c41 -45 45
-100 9 -133 -17 -15 -23 -16 -61 -3 -34 11 -45 21 -51 44 -8 31 7 94 26 106
21 14 55 8 77 -14z m-4284 -330 c62 -60 48 -164 -27 -203 -35 -18 -56 -19 -99
-4 -41 14 -61 54 -61 122 0 58 23 100 64 118 34 14 89 0 123 -33z m4050 -13
c52 -36 32 -155 -25 -155 -35 0 -82 46 -82 81 0 30 25 68 54 79 29 12 29 12
53 -5z m-3729 -310 c35 -38 42 -82 21 -129 -12 -27 -84 -66 -120 -66 -34 0
-85 37 -103 74 -19 41 -20 60 -3 78 7 7 22 26 32 41 24 37 50 48 100 42 29 -4
49 -15 73 -40z m3436 -46 c32 -38 33 -63 1 -94 -31 -32 -86 -34 -115 -5 -30
30 -27 83 6 109 39 31 77 27 108 -10z m-3081 -198 c27 -11 67 -83 67 -121 0
-14 -15 -46 -32 -72 -28 -41 -38 -48 -66 -48 -51 0 -88 25 -112 74 l-21 45 22
51 c30 70 79 95 142 71z m2676 -67 c27 -22 31 -32 31 -74 0 -42 -4 -51 -29
-69 -24 -18 -34 -19 -54 -10 -39 18 -88 119 -57 119 5 0 16 14 25 30 19 37 44
38 84 4z m-2239 -161 c36 -32 55 -98 41 -136 -23 -60 -110 -96 -152 -64 -27
20 -59 80 -59 110 0 62 52 116 112 117 16 0 40 -11 58 -27z m1841 -42 c40 -40
41 -100 3 -130 -56 -44 -121 -11 -131 66 -4 31 0 43 21 66 33 36 69 35 107 -2z
m-1398 -119 c15 -16 29 -44 33 -69 6 -39 4 -45 -29 -78 -40 -40 -55 -43 -89
-15 -33 25 -52 73 -44 106 9 34 59 84 83 84 11 0 31 -12 46 -28z m946 -17 c17
-20 31 -47 31 -61 0 -31 -50 -84 -79 -84 -35 0 -72 41 -78 86 -5 36 -2 44 23
68 39 35 66 33 103 -9z m-465 -27 c16 -15 28 -38 32 -64 5 -37 3 -44 -22 -68
-47 -44 -69 -44 -109 0 -38 41 -40 49 -25 88 24 64 79 84 124 44z"/>
<path d="M7395 6784 c-5 -1 -22 -5 -36 -8 -28 -6 -59 -56 -59 -96 0 -31 62
-90 94 -90 38 0 99 59 99 96 0 43 -64 107 -98 98z"/>
<path d="M7085 6557 c-36 -30 -45 -95 -19 -131 28 -38 76 -35 114 7 16 17 30
39 30 47 0 19 -76 100 -94 100 -3 0 -17 -10 -31 -23z"/>
<path d="M6470 6489 c0 -5 5 -7 10 -4 6 3 10 8 10 11 0 2 -4 4 -10 4 -5 0 -10
-5 -10 -11z"/>
<path d="M7582 6420 c-65 -27 -40 -150 31 -150 23 0 77 53 77 76 0 25 -48 84
-68 83 -9 0 -27 -4 -40 -9z"/>
<path d="M6823 6370 c-18 -11 -34 -23 -34 -27 -18 -122 7 -164 85 -142 71 20
91 106 37 160 -35 34 -45 35 -88 9z"/>
<path d="M7295 6189 c-15 -28 -15 -33 2 -67 23 -47 49 -51 91 -12 l33 30 -32
40 c-40 50 -72 53 -94 9z"/>
<path d="M7038 6019 c-22 -12 -23 -41 -2 -80 13 -27 19 -30 47 -24 41 9 44 12
52 57 7 34 5 39 -20 48 -33 12 -55 12 -77 -1z"/>
<path d="M6765 5790 c-20 -39 -19 -43 13 -62 50 -30 78 -11 72 47 -5 53 -60
63 -85 15z"/>
<path d="M6467 5613 c-24 -23 21 -103 58 -103 20 0 44 24 50 51 5 21 1 30 -16
43 -24 16 -80 22 -92 9z"/>
</g>
</svg>
